<svg width="22" height="26" viewBox="0 0 22 26" fill="none" xmlns="http://www.w3.org/2000/svg">
<path d="M20.4248 25.964C20.3358 25.964 20.2448 25.952 20.1558 25.928C19.6238 25.78 19.3118 25.229 19.4598 24.697C20.2168 21.975 18.6898 20.155 18.6748 20.137C18.3158 19.718 18.3628 19.086 18.7818 18.727C19.1998 18.368 19.8328 18.415 20.1918 18.834C20.2838 18.941 22.4258 21.494 21.3868 25.231C21.2648 25.674 20.8618 25.964 20.4248 25.964ZM13.2258 25.401C12.9808 25.401 12.7358 25.312 12.5418 25.131C12.1388 24.753 12.1178 24.12 12.4948 23.717C13.9798 22.13 13.9478 19.524 13.9468 19.497C13.9308 18.945 14.3658 18.485 14.9188 18.469C15.4608 18.464 15.9318 18.888 15.9468 19.441C15.9508 19.58 16.0198 22.878 13.9558 25.085C13.7588 25.295 13.4918 25.401 13.2258 25.401ZM4.68375 16.705C4.20375 16.705 3.77975 16.358 3.69875 15.868C3.60875 15.324 3.97675 14.808 4.52175 14.719C7.59575 14.209 9.29575 12.342 9.31275 12.323C9.67775 11.913 10.3108 11.874 10.7218 12.239C11.1338 12.604 11.1748 13.232 10.8128 13.645C10.7258 13.744 8.65675 16.06 4.84875 16.691C4.79275 16.701 4.73775 16.705 4.68375 16.705ZM7.60475 21.562C7.17975 21.562 6.78575 21.29 6.65075 20.864C6.48475 20.338 6.77675 19.775 7.30275 19.609C9.99575 18.756 11.1828 16.779 11.1948 16.759C11.4748 16.282 12.0868 16.122 12.5628 16.402C13.0398 16.681 13.1988 17.295 12.9198 17.77C12.8568 17.878 11.3248 20.433 7.90675 21.514C7.80575 21.547 7.70375 21.562 7.60475 21.562ZM2.98575 10.892C2.48975 10.892 2.05875 10.523 1.99475 10.017C1.92575 9.46897 2.31375 8.96897 2.86175 8.89897C5.55075 8.55897 7.51875 6.92797 7.53775 6.91097C7.95975 6.55697 8.59075 6.60797 8.94575 7.02997C9.30175 7.45097 9.25075 8.07997 8.83075 8.43697C8.73375 8.51997 6.41075 10.466 3.11275 10.883C3.06975 10.889 3.02775 10.892 2.98575 10.892ZM1.16475 6.12497C0.739754 6.12497 0.345753 5.85197 0.210753 5.42397C0.0457532 4.89697 0.337753 4.33597 0.864753 4.16997C3.99475 3.18697 5.11775 1.47797 5.16375 1.40597C5.45875 0.943974 6.07475 0.800973 6.53875 1.09397C7.00375 1.38597 7.14975 1.99297 6.86275 2.45997C6.80275 2.55697 5.35675 4.85597 1.46375 6.07897C1.36475 6.10997 1.26375 6.12497 1.16475 6.12497Z" fill="#744EAA"/>
</svg>
